<?xml version="1.0" standalone="no"?><!DOCTYPE svg PUBLIC "-//W3C//DTD SVG 1.1//EN" "http://www.w3.org/Graphics/SVG/1.1/DTD/svg11.dtd"><svg t="1506684005437" class="icon" style="" viewBox="0 0 1050 1024" version="1.1" xmlns="http://www.w3.org/2000/svg" p-id="2366" xmlns:xlink="http://www.w3.org/1999/xlink" width="49.21875" height="48"><defs><style type="text/css"></style></defs><path d="M525.496974 1024C243.902524 1024 13.499974 793.59895 13.499974 511.997c0-30.71994 20.47796-51.1979 51.1994-51.1979 30.71994 0 51.1994 20.47796 51.1994 51.1979 0 225.28156 184.32264 409.5997 409.5982 409.5997 225.28156 0 409.5982-184.31964 409.5982-409.5997 0-225.27406-184.31814-409.5982-409.5982-409.5982-138.23973 0-266.23748 66.56237-337.91484 184.32414-20.48546 20.47796-51.1994 25.59895-71.68336 10.23598-25.60045-15.35697-30.72144-46.07841-15.35847-71.67736C192.697124 87.04183 356.535804 0 525.496974 0c281.60045 0 512.003 230.40255 512.003 511.997C1037.499974 793.59895 807.097424 1024 525.496974 1024L525.496974 1024zM525.496974 563.1964c-30.71994 0-51.1994-20.47646-51.1994-51.1994L474.297574 256.0015c0-30.71994 20.47946-51.1994 51.1994-51.1994 30.71994 0 51.1994 20.47946 51.1994 51.1994l0 255.9955C576.696374 542.71844 556.218414 563.1964 525.496974 563.1964L525.496974 563.1964zM679.099674 716.8006c-15.36297 0-25.59895-5.12249-35.84243-15.36447L489.660544 547.83943c-20.48396-20.47646-20.48396-51.1994 0-71.67736 20.47946-20.48546 51.1994-20.48546 71.67886 0L714.936104 629.75877c20.48396 20.47946 20.48396 51.1994 0 71.67736C704.700124 711.67811 694.458144 716.8006 679.099674 716.8006L679.099674 716.8006zM320.700874 307.2009 115.898774 307.2009c-30.72144 0-51.1994-20.47796-51.1994-51.1994L64.699374 51.1994C64.699374 20.47946 85.177334 0 115.898774 0c30.71994 0 51.1979 20.47946 51.1979 51.1994L167.096674 204.8021l153.6042 0c30.71994 0 51.1994 20.47946 51.1994 51.1994C371.900274 286.72294 351.420814 307.2009 320.700874 307.2009L320.700874 307.2009zM320.700874 307.2009" p-id="2367" fill="#bfbfbf"></path></svg>